<?xml version="1.0" standalone="no"?>
<!DOCTYPE svg PUBLIC "-//W3C//DTD SVG 20010904//EN"
 "http://www.w3.org/TR/2001/REC-SVG-20010904/DTD/svg10.dtd">
<svg version="1.0" xmlns="http://www.w3.org/2000/svg"
 width="96.000000pt" height="96.000000pt" viewBox="0 0 96.000000 96.000000"
 preserveAspectRatio="xMidYMid meet">
<metadata>
Created by potrace 1.11, written by Peter Selinger 2001-2013
</metadata>
<g transform="translate(0.000000,96.000000) scale(0.100000,-0.100000)"
fill="#000000" stroke="none">
<path d="M126 861 c-13 -20 1 -207 18 -248 18 -42 18 -43 -9 -110 -15 -37 -34
-80 -41 -95 -14 -26 -13 -28 33 -59 102 -68 183 -131 183 -142 0 -21 52 -78
90 -97 82 -42 181 -12 236 72 31 48 68 80 182 157 61 41 62 42 48 69 -7 15
-26 57 -41 95 l-27 67 19 48 c13 34 18 74 18 147 l0 100 -33 3 c-49 5 -125
-24 -174 -67 l-43 -39 -53 11 c-37 8 -67 8 -104 0 -53 -11 -53 -10 -96 27 -24
21 -64 46 -89 54 -51 17 -109 21 -117 7z m117 -75 c18 -8 41 -22 51 -30 18
-15 17 -18 -37 -70 -63 -62 -64 -62 -73 45 -8 77 -3 82 59 55z m533 -55 c-9
-105 -10 -106 -68 -50 -28 27 -56 49 -61 49 -15 0 34 41 68 56 62 28 69 22 61
-55z m-213 -27 c89 -30 176 -133 222 -263 l14 -40 -77 -55 c-98 -69 -113 -83
-136 -128 -45 -90 -169 -88 -214 3 -19 39 -93 104 -170 150 -20 13 -38 23 -40
24 -1 1 7 29 19 61 76 204 226 301 382 248z"/>
<path d="M304 464 c3 -9 6 -20 6 -25 0 -5 9 -18 20 -29 25 -25 96 -29 86 -4
-3 9 -6 20 -6 25 0 5 -9 18 -20 29 -25 25 -96 29 -86 4z"/>
<path d="M570 460 c-11 -11 -20 -24 -20 -29 0 -5 -3 -16 -6 -25 -10 -25 61
-21 86 4 11 11 20 24 20 29 0 5 3 16 6 25 10 25 -61 21 -86 -4z"/>
<path d="M423 284 c-4 -10 6 -27 26 -47 l31 -32 31 32 c44 44 34 63 -31 63
-37 0 -52 -4 -57 -16z"/>
</g>
</svg>
